<svg width="60" height="60" viewBox="0 0 60 60" fill="none" xmlns="http://www.w3.org/2000/svg">
<path d="M10 31.25V47.5C10 48.4946 10.3951 49.4484 11.0983 50.1516C11.8016 50.8549 12.7554 51.25 13.75 51.25H46.25C47.2446 51.25 48.1984 50.8549 48.9016 50.1516C49.6049 49.4484 50 48.4946 50 47.5V31.25" stroke="#4F9CF9" stroke-width="5" stroke-linecap="round" stroke-linejoin="round"/>
<path d="M6.25 18.75C6.25 18.087 6.51339 17.4511 6.98223 16.9822C7.45107 16.5134 8.08696 16.25 8.75 16.25H51.25C51.913 16.25 52.5489 16.5134 53.0178 16.9822C53.4866 17.4511 53.75 18.087 53.75 18.75V28.75C53.75 29.413 53.4866 30.0489 53.0178 30.5178C52.5489 30.9866 51.913 31.25 51.25 31.25H8.75C8.08696 31.25 7.45107 30.9866 6.98223 30.5178C6.51339 30.0489 6.25 29.413 6.25 28.75V18.75Z" stroke="#4F9CF9" stroke-width="5" stroke-linejoin="round"/>
<path d="M38.75 16.25V11.25C38.75 10.587 38.4866 9.95107 38.0178 9.48223C37.5489 9.01339 36.913 8.75 36.25 8.75H23.75C23.087 8.75 22.4511 9.01339 21.9822 9.48223C21.5134 9.95107 21.25 10.587 21.25 11.25V16.25M18.75 28.75V36.25M41.25 28.75V36.25" stroke="#4F9CF9" stroke-width="5" stroke-linecap="round" stroke-linejoin="round"/>
</svg>
