<svg width="21" height="21" viewBox="0 0 21 21" fill="none" xmlns="http://www.w3.org/2000/svg">
<path d="M15.7348 19.3165C14.9492 19.3165 13.8458 19.0324 12.1934 18.1092C10.1841 16.9824 8.62987 15.9422 6.63141 13.9489C4.70458 12.0233 3.76692 10.7766 2.4546 8.38857C0.972048 5.6923 1.22477 4.27897 1.50728 3.67492C1.84371 2.95296 2.34031 2.52116 2.98218 2.09257C3.34676 1.8537 3.73258 1.64894 4.13474 1.48088C4.17498 1.46357 4.21241 1.44707 4.24581 1.43218C4.44501 1.34244 4.74683 1.20682 5.12914 1.3517C5.38428 1.44748 5.61206 1.64346 5.96861 1.99559C6.69982 2.71674 7.69905 4.32283 8.06768 5.11159C8.31517 5.6432 8.47896 5.99412 8.47936 6.3877C8.47936 6.84848 8.24756 7.20382 7.96626 7.58734C7.91355 7.65937 7.86123 7.72819 7.81052 7.79499C7.50428 8.19742 7.43707 8.31372 7.48134 8.52138C7.57108 8.93869 8.24032 10.181 9.34016 11.2784C10.44 12.3758 11.6465 13.0028 12.0654 13.0922C12.2819 13.1384 12.4006 13.0684 12.8159 12.7513C12.8755 12.7058 12.9367 12.6587 13.0007 12.6117C13.4296 12.2925 13.7685 12.0668 14.2184 12.0668H14.2208C14.6124 12.0668 14.9476 12.2366 15.503 12.5167C16.2273 12.8821 17.8817 13.8685 18.6073 14.6005C18.9602 14.9562 19.157 15.1832 19.2532 15.4379C19.3981 15.8214 19.2616 16.1221 19.1727 16.3233C19.1578 16.3567 19.1413 16.3933 19.124 16.4339C18.9546 16.8354 18.7486 17.2204 18.5087 17.5841C18.0809 18.2239 17.6475 18.7193 16.9239 19.0562C16.5524 19.2319 16.1458 19.321 15.7348 19.3165Z" fill="white"/>
</svg>
