<svg width="21" height="21" viewBox="0 0 21 21" fill="none" xmlns="http://www.w3.org/2000/svg">
<path d="M10.3021 9.87269C9.73286 9.87269 9.18694 9.64657 8.78443 9.24406C8.38193 8.84155 8.1558 8.29564 8.1558 7.7264C8.1558 7.15717 8.38193 6.61126 8.78443 6.20875C9.18694 5.80624 9.73286 5.58012 10.3021 5.58012C10.8713 5.58012 11.4172 5.80624 11.8197 6.20875C12.2223 6.61126 12.4484 7.15717 12.4484 7.7264C12.4484 8.00826 12.3929 8.28735 12.285 8.54775C12.1771 8.80815 12.019 9.04476 11.8197 9.24406C11.6204 9.44336 11.3838 9.60146 11.1234 9.70932C10.863 9.81718 10.5839 9.87269 10.3021 9.87269ZM10.3021 1.7168C8.70824 1.7168 7.17967 2.34995 6.05265 3.47697C4.92563 4.60399 4.29248 6.13256 4.29248 7.7264C4.29248 12.2336 10.3021 18.8871 10.3021 18.8871C10.3021 18.8871 16.3117 12.2336 16.3117 7.7264C16.3117 6.13256 15.6785 4.60399 14.5515 3.47697C13.4245 2.34995 11.8959 1.7168 10.3021 1.7168Z" fill="white"/>
</svg>
