<svg width="48" height="48" viewBox="0 0 48 48" fill="none" xmlns="http://www.w3.org/2000/svg">
<rect width="48" height="48" rx="24" fill="white"/>
<path d="M29.1712 26.2979C29.1827 26.7142 29.3572 27.1127 29.6571 27.4075C29.957 27.7024 30.3583 27.87 30.7746 27.8742C31.1909 27.8785 31.5889 27.7191 31.8828 27.4303C32.1768 27.1415 32.3431 26.7465 32.3461 26.3304L32.2542 17.349C32.2499 16.928 32.0785 16.5225 31.7777 16.2218C31.477 15.9211 31.0715 15.7497 30.6505 15.7453L21.6692 15.6534C21.253 15.6564 20.858 15.8228 20.5692 16.1167C20.2805 16.4106 20.121 16.8086 20.1253 17.2249C20.1296 17.6412 20.2972 18.0425 20.592 18.3424C20.8868 18.6423 21.2853 18.8168 21.7016 18.8283L26.8502 18.881L16.1984 29.5328C15.9037 29.8275 15.7405 30.2296 15.7449 30.6507C15.7492 31.0718 15.9206 31.4774 16.2214 31.7782C16.5222 32.079 16.9277 32.2504 17.3488 32.2547C17.7699 32.259 18.172 32.0958 18.4667 31.8011L29.1185 21.1493L29.1712 26.2979Z" fill="black"/>
</svg>
