<svg width="48" height="48" viewBox="0 0 48 48" fill="none" xmlns="http://www.w3.org/2000/svg">
<rect width="48" height="48" rx="24" fill="#F6F6F6"/>
<path d="M23.119 29.5902C22.7199 29.7091 22.3801 29.9807 22.1729 30.3467C21.9658 30.7127 21.9077 31.1438 22.0114 31.547C22.115 31.9502 22.372 32.2934 22.727 32.5025C23.082 32.7117 23.5066 32.7702 23.9094 32.6653L32.5609 30.252C32.9664 30.1388 33.3137 29.8683 33.5264 29.5C33.739 29.1317 33.7996 28.6957 33.6949 28.2879L31.4591 19.5888C31.3485 19.1876 31.0856 18.8491 30.7269 18.6462C30.3683 18.4434 29.9426 18.3924 29.5416 18.5043C29.1406 18.6161 28.7963 18.8819 28.5829 19.2443C28.3695 19.6067 28.3041 20.0368 28.4008 20.4419L29.6825 25.4287L16.6367 17.8967C16.2758 17.6883 15.8451 17.6348 15.4395 17.7479C15.0339 17.8611 14.6865 18.1316 14.4738 18.5C14.2611 18.8684 14.2005 19.3045 14.3053 19.7124C14.4102 20.1202 14.6718 20.4664 15.0328 20.6748L28.0785 28.2068L23.119 29.5902Z" fill="black"/>
</svg>
