<svg width="18" height="14" viewBox="0 0 18 14" fill="none" xmlns="http://www.w3.org/2000/svg">
<path d="M15.4533 0H1.71703C0.772664 0 0.00858515 0.772664 0.00858515 1.71703L0 12.0192C0 12.9636 0.772664 13.7362 1.71703 13.7362H15.4533C16.3976 13.7362 17.1703 12.9636 17.1703 12.0192V1.71703C17.1703 0.772664 16.3976 0 15.4533 0ZM15.1099 3.64869L9.04017 7.44333C8.76544 7.61503 8.40487 7.61503 8.13014 7.44333L2.06044 3.64869C1.97435 3.60037 1.89897 3.53508 1.83884 3.45677C1.77872 3.37847 1.73511 3.28878 1.71066 3.19314C1.6862 3.09749 1.6814 2.99788 1.69656 2.90033C1.71172 2.80278 1.74651 2.70931 1.79883 2.6256C1.85115 2.54188 1.91992 2.46965 2.00096 2.41328C2.08201 2.35691 2.17365 2.31757 2.27034 2.29764C2.36703 2.27772 2.46676 2.27761 2.56349 2.29734C2.66022 2.31707 2.75194 2.35622 2.8331 2.41243L8.58515 6.00961L14.3372 2.41243C14.4184 2.35622 14.5101 2.31707 14.6068 2.29734C14.7036 2.27761 14.8033 2.27772 14.9 2.29764C14.9967 2.31757 15.0883 2.35691 15.1693 2.41328C15.2504 2.46965 15.3192 2.54188 15.3715 2.6256C15.4238 2.70931 15.4586 2.80278 15.4737 2.90033C15.4889 2.99788 15.4841 3.09749 15.4597 3.19314C15.4352 3.28878 15.3916 3.37847 15.3315 3.45677C15.2713 3.53508 15.196 3.60037 15.1099 3.64869Z" fill="white"/>
</svg>
